<?xml version="1.0" encoding="utf-8"?>
<!-- Generator: Adobe Illustrator 18.0.0, SVG Export Plug-In . SVG Version: 6.00 Build 0)  -->
<!DOCTYPE svg PUBLIC "-//W3C//DTD SVG 1.1//EN" "http://www.w3.org/Graphics/SVG/1.1/DTD/svg11.dtd">
<svg version="1.1" xmlns="http://www.w3.org/2000/svg" xmlns:xlink="http://www.w3.org/1999/xlink" x="0px" y="0px"
	 viewBox="0 0 16 11" enable-background="new 0 0 16 11" xml:space="preserve">
<g id="Guides_For_Artboard_3_">
</g>
<g id="Guides_For_Artboard_2_">
</g>
<g id="Guides_For_Artboard_1_">
</g>
<g id="Guides_For_Artboard">
</g>
<g id="Õ_xBA__x2264__x201E__x5F_1">
	<rect fill="#0067BC" width="16" height="11"/>
	<g>
		<rect fill="#0067BC" width="9" height="5"/>
		<polygon fill="#FFFFFF" points="9,1.75 5.4,1.75 5.4,0 3.6,0 3.6,1.75 0,1.75 0,3.25 3.6,3.25 3.6,5 5.4,5 5.4,3.25 9,3.25 		"/>
		<polygon fill="#FFFFFF" points="9,4.42 1.03,0 0,0 0,0.58 7.96,5 9,5 		"/>
		<polygon fill="#FFFFFF" points="0,4.42 7.97,0 9,0 9,0.58 1.04,5 0,5 		"/>
		<polygon fill="#E31937" points="9,2.06 5.03,2.06 5.03,0 3.98,0 3.98,2.06 0,2.06 0,2.94 3.98,2.94 3.98,5 5.03,5 5.03,2.94 
			9,2.94 		"/>
		<polygon fill="#E31937" points="9,4.99 9,4.59 6.58,3.25 5.87,3.25 		"/>
		<polygon fill="#E31937" points="9,0 8.29,0 5.4,1.6 5.4,1.75 5.84,1.75 9,0 		"/>
		<polygon fill="#E31937" points="3.13,3.25 0,4.99 0,5 0.69,5 3.6,3.39 3.6,3.25 		"/>
		<polygon fill="#E31937" points="0,0 0,0.4 2.44,1.75 3.15,1.75 		"/>
	</g>
	<polygon fill="#FFFFFF" points="11.58,2.23 12.34,2.23 12.58,1.5 12.81,2.23 13.58,2.23 12.96,2.68 13.2,3.4 12.58,2.95 11.96,3.4 
		12.19,2.68 	"/>
	<polygon fill="#E31937" points="11.92,2.34 12.42,2.34 12.58,1.86 12.73,2.34 13.24,2.34 12.83,2.64 12.98,3.12 12.58,2.82 
		12.17,3.12 12.32,2.64 	"/>
	<polygon fill="#FFFFFF" points="9.58,4.23 10.34,4.23 10.58,3.5 10.81,4.23 11.58,4.23 10.96,4.68 11.19,5.4 10.58,4.95 9.96,5.4 
		10.19,4.68 	"/>
	<polygon fill="#E31937" points="9.92,4.34 10.42,4.34 10.58,3.86 10.73,4.34 11.24,4.34 10.83,4.63 10.98,5.11 10.58,4.82 
		10.17,5.11 10.32,4.63 	"/>
	<polygon fill="#FFFFFF" points="13.49,4.29 14.25,4.29 14.49,3.56 14.72,4.29 15.49,4.29 14.87,4.74 15.11,5.46 14.49,5.01 
		13.87,5.46 14.11,4.74 	"/>
	<polygon fill="#E31937" points="13.83,4.4 14.33,4.4 14.49,3.92 14.64,4.4 15.15,4.4 14.74,4.7 14.9,5.18 14.49,4.88 14.08,5.18 
		14.23,4.7 	"/>
	<polygon fill="#FFFFFF" points="11.52,8.17 12.28,8.17 12.52,7.44 12.75,8.17 13.52,8.17 12.9,8.62 13.14,9.35 12.52,8.9 
		11.9,9.35 12.14,8.62 	"/>
	<polygon fill="#E31937" points="11.86,8.25 12.36,8.25 12.52,7.77 12.67,8.25 13.18,8.25 12.77,8.55 12.93,9.03 12.52,8.73 
		12.11,9.03 12.27,8.55 	"/>
</g>
</svg>
